<svg xmlns="http://www.w3.org/2000/svg" viewBox="0 0 512 512"><g fill="#9f9038" transform="matrix(1.512566 0 0 -1.512566 -131.217146 643.217109)"><path d="M181.217 175.826c-1.402 2.912-2.157 7.009-2.157 12.293 0 6.47 1.079 15.312 3.235 26.527l1.271 6.534h-25.787l-1.04-5.024c-2.157-10.352-4.098-18.548-5.931-24.586-1.725-6.039-3.774-10.784-6.039-14.234s-4.96-6.255-8.087-8.411c-3.235-2.157-7.225-4.637-12.078-7.333v-.216h73.866v.216c-4.313 2.588-7.871 4.852-10.783 6.793-2.804 1.941-5.068 4.422-6.47 7.441m-4.205 151.291c0-6.039-1.078-14.665-3.019-25.664l-6.03-30.988h25.831l7.912 36.811 13.33-36.811h22.308l-28.845 80.16h-49.064v-.216c6.147-3.019 10.568-5.931 13.371-8.627s4.206-7.656 4.206-14.665m119.765-56.652l13.41 36.81 7.912-36.81h25.814l-6.013 30.987c-2.049 10.999-3.019 19.518-3.019 25.665 0 7.117 1.402 11.969 4.205 14.665s7.225 5.608 13.372 8.627v.216h-48.957l-29.041-80.16zm70.454-93.13c-2.264 3.451-4.313 8.195-6.254 14.234-1.834 6.039-3.882 14.234-6.039 24.586l-1.042 5.025h-25.812l.327-2.005c1.725-10.784 2.588-19.518 2.588-26.42 0-9.058-1.402-15.744-4.421-19.949s-7.333-7.98-13.156-11.215v-.215h73.974v.215c-4.96 2.696-8.95 5.176-12.077 7.333s-5.823 4.96-8.088 8.411"/><path d="M256.604 221.18l-.766-2.113-.76 2.113h-22.195l22.632-59.589h.539l22.769 59.589zm-101.152 34.969c-2.125-.245-3.181-.967-3.167-2.166v-24.518c0-1.199 1.056-1.927 3.167-2.186v-.204h-11.033v.204c2.124.245 3.18.973 3.167 2.186v24.722l-11.667-27.582-11.973 23.905v-16.039c0-2.629.279-4.458.838-5.486s1.341-1.597 2.35-1.706v-.204h-7.193v.204c.531.054.951.153 1.257.296s.626.416.96.818.575 1.035.726 1.9.224 1.985.224 3.361v18.531c-.899 1.758-2.029 3.153-3.391 4.189h6.415l11.626-23.272 9.828 23.272h7.866zm25.193-26.401c2.403 1.369 3.792 3.43 4.167 6.183s-.314 5.669-2.067 8.746a21.23 21.23 0 0 1-5.404 6.268c-2.208 1.729-4.58 2.831-7.116 3.307s-4.834.127-6.894-1.046c-2.402-1.369-3.788-3.416-4.155-6.142s.325-5.627 2.078-8.704c1.396-2.45 3.197-4.539 5.405-6.268s4.575-2.845 7.104-3.348 4.823-.169 6.882 1.004m-16.161 24.984c3.929 2.239 7.891 2.9 11.885 1.985s7.13-3.373 9.409-7.373 2.794-7.955 1.548-11.863-3.833-6.981-7.762-9.219c-3.954-2.252-7.931-2.919-11.935-2.001s-7.143 3.376-9.422 7.377-2.791 7.953-1.536 11.858 3.86 6.984 7.813 9.236m44.565 1.989h7.213v-.225c-.532-.054-.951-.15-1.257-.286s-.63-.408-.971-.817-.585-1.046-.735-1.91-.225-1.979-.225-3.341v-15.773l.204-8.03-.081-.082-22.005 26.153v-17.592c0-2.629.279-4.458.837-5.486s1.335-1.597 2.329-1.706v-.204h-7.192v.204c.532.054.951.153 1.257.296s.626.416.96.818.579 1.035.736 1.9.235 1.985.235 3.361v19.41c-1.389 1.621-2.663 2.724-3.821 3.31h7.458c.34-.613.831-1.315 1.471-2.105l16.774-19.961v14.649c0 2.629-.279 4.457-.837 5.486s-1.342 1.597-2.35 1.706zm33.915-21.045l.164-.081-2.084-8.296-.266-.919-1.41.919h-21.76v.205c2.125.776 3.181 1.783 3.167 3.023v23.681c0 1.198-1.056 1.92-3.167 2.165v.225h22.598l1.41-6.865-.164-.082-2.717 3.576c-.695.763-1.601 1.403-2.717 1.92s-2.459.777-4.026.777h-6.518v-13.648h5.19c2.289 0 3.92.313 4.894.94s1.712 1.79 2.217 3.493v-9.541c-.505 1.702-1.243 2.867-2.217 3.493s-2.605.94-4.894.94h-5.19v-13.628h7.193c1.198 0 2.25.147 3.156.44s1.771.806 2.595 1.542 1.55 1.512 2.176 2.329l2.37 3.392m28.447 20.463l-2.677-8.622h-.163c.504 5.326-1.662 7.989-6.497 7.989h-2.636v-25.867c0-.899.32-1.529.96-1.89s1.662-.596 3.065-.705v-.204h-12.729v.204c1.389.109 2.407.347 3.055.715s.97.994.97 1.88v25.867h-.674c-1.594 0-2.932-.14-4.015-.419s-2.03-.767-2.84-1.461a9.91 9.91 0 0 1-2.053-2.432c-.559-.926-1.172-2.152-1.839-3.677h-.184l1.389 8.622zm2.239-29.3v.205c2.125.245 3.181.973 3.167 2.185v24.519c0 1.198-1.056 1.92-3.167 2.165v.225h11.033v-.225c-2.124-.245-3.18-.967-3.167-2.165v-24.519c0-1.198 1.056-1.927 3.167-2.185v-.205zm38.513 29.116c-.613-.109-1.213-.504-1.798-1.185s-1.451-1.955-2.595-3.821l-14.404-23.436h6.497c3.705 0 6.357.501 7.958 1.502s2.973 3.109 4.117 6.324h.184l-1.349-8.5h-24.518c1.198.504 2.942 2.623 5.231 6.355l13.73 22.271h-5.619c-3.487 0-6.01-.511-7.57-1.533s-2.911-3.133-4.056-6.334h-.163l1.328 8.541h23.027zm16.014-13.288l-2.643 18.431h-.166c-.138-2.938-1.5-11.488-2.523-18.431zm-5.881-3.719l-1.816-12.13h-4.097l6.243 38.009h5.764l6.502-38.009h-4.237l-1.955 12.13zM343.593 248h2.484c3.611 0 4.558 2.09 4.558 6.15v1.692c0 3.472-.947 5.551-4.754 5.551h-2.288zm0-3.434v-17.748h-4.045v38.009h6.643c5.71 0 8.519-2.462 8.519-8.746v-1.739c0-5.162-1.816-7.278-3.869-8.002 2.41-.895 3.533-2.71 3.533-7.796 0-3.248-.057-9.326.373-11.726h-3.942c-.482 2.369-.398 8.757-.398 11.421 0 4.925-.693 6.327-4.46 6.327zm20.586 16.517h-6.151v3.744h16.309v-3.744h-6.114v-34.265h-4.044zm26.951-15.861h-8.525v-14.686h9.678l-.549-3.719H378.56v38.01h13.056v-3.745h-9.011v-12.141h8.525z"/></g></svg>